# xmcd
#
# Track frame offsets: 
#        150
#        43017
#        76525
#        126540
#        146147
#        181147
#        222495
#        243072
#
# Disc length: 3720 seconds
#
# Revision: 3
# Processed by: cddbd v1.5.1PL2 Copyright (c) Steve Scherf et al.
# Submitted via: ExactAudioCopy v0.95b3
#
DISCID=6c0e8608
DTITLE=Brian Blade Fellowship - Brian Blade Fellowship
DYEAR=1998
DGENRE=Jazz
TTITLE0=Red River Revel
TTITLE1=The Undertow
TTITLE2=Folklore
TTITLE3=In Spite of Everything
TTITLE4=Lifeline
TTITLE5=Mohave
TTITLE6=If You See Lurah
TTITLE7=Loving Without Asking
EXTD=with Jon Cowherd: piano\nChris Thomas: bass\nMel Butler: tenor an
EXTD=d soprano sax\nJeff Parker: guitar\nDave Easley: pedal steel guit
EXTD=ar\nDan Lanois: Mando Guitar\n\nA 1998 Blue Note release YEAR: 19
EXTD=98
EXTT0=
EXTT1=
EXTT2=
EXTT3=
EXTT4=
EXTT5=
EXTT6=
EXTT7=
PLAYORDER=
